<svg width="19" height="29" viewBox="0 0 19 29" fill="none" xmlns="http://www.w3.org/2000/svg">
<path d="M11.4783 11.5511C11.4985 11.5991 11.5464 11.6562 11.5346 11.6936C11.4312 12.0192 11.3476 12.357 11.1981 12.6603C11.0267 13.008 10.877 12.9919 10.7047 12.6537C10.6789 12.6031 10.6589 12.5494 10.6338 12.4984C10.5133 12.2542 10.3489 12.2041 10.1426 12.3826C10.0258 12.4836 9.93401 12.6262 9.86193 12.7666C9.79776 12.8916 9.7784 13.0402 9.7355 13.1771C9.60449 13.5953 9.30391 13.7117 8.96537 13.4376C8.73242 13.249 8.51962 13.0203 8.34294 12.7755C7.59398 11.7379 7.18671 10.5531 6.96445 9.29539C6.9234 9.063 6.90548 8.82635 6.87323 8.56169C7.16189 8.58253 7.41346 8.63572 7.65735 8.61072C8.11056 8.56432 8.43796 8.26624 8.7562 7.95911C8.96854 7.75416 9.152 7.49026 9.51053 7.47461C9.53398 8.00288 9.30576 8.42542 9.07112 8.84926C8.99012 8.99561 8.9076 9.15661 8.88677 9.31908C8.84057 9.67903 9.06838 9.87716 9.41569 9.80904C9.50641 9.79124 9.59405 9.73995 9.68369 9.73831C9.77982 9.73651 9.92179 9.74098 9.96578 9.80171C10.2239 10.1581 10.4593 10.5317 10.6791 10.9263C10.5446 10.9995 10.4333 11.0461 10.3409 11.0847C10.4754 11.1418 10.6177 11.2022 10.7428 11.2708C10.6891 11.2872 10.6526 11.2953 10.5936 11.2936C10.4037 11.2486 10.2365 11.1851 10.069 11.1845C9.74819 11.1832 9.42729 11.2177 9.11251 11.2165C9.19352 11.1541 9.26843 11.1126 9.34333 11.071C9.3383 11.0497 9.33327 11.0285 9.32822 11.0072C9.08072 11.0434 8.83319 11.0796 8.56452 11.1146C8.38385 11.0271 8.22432 10.9407 8.05368 10.8484C7.98841 10.631 7.93425 10.385 7.83853 10.1574C7.78504 10.0301 7.66262 9.93305 7.57125 9.82241C7.54268 9.84273 7.51411 9.86305 7.48551 9.88338C7.57286 10.3978 7.47721 10.9508 7.81888 11.4235C7.81349 11.4366 7.82044 11.4643 7.81638 11.4852C8.08394 11.8549 8.35557 12.2037 8.59037 12.5051C8.6163 12.2835 8.64381 12.0485 8.68698 11.8114C8.72433 11.7884 8.746 11.7673 8.78391 11.7409C8.83107 11.7034 8.86198 11.6713 8.91015 11.6386C8.95022 11.6403 8.97302 11.6425 8.99697 11.6671C9.042 11.7278 9.08887 11.8024 9.1293 11.799C9.38828 11.7767 9.64504 11.7256 9.90411 11.707C10.1346 11.6904 10.3672 11.7035 10.6342 11.7035C10.6854 11.7606 10.7863 11.873 10.9047 12.0049C10.938 11.9203 10.9585 11.8683 10.9943 11.8109C11.0366 11.772 11.0635 11.7385 11.1121 11.7025C11.2486 11.6502 11.3634 11.6007 11.4783 11.5511Z" fill="#FBFBFB"/>
<path d="M9.2247 1.47119C9.32627 2.0697 9.43262 2.64095 9.52743 3.21419C9.57851 3.52302 9.60975 3.83528 9.64973 4.14423C8.64424 4.18869 7.67882 4.23138 6.72101 4.27372C6.89833 2.22775 8.28615 0.527969 9.71466 0.0898438C9.36821 0.502102 9.19988 0.940531 9.2247 1.47119Z" fill="#FBFBFB"/>
<path d="M6.49493 5.5449C5.78305 5.76672 5.10711 6.01042 4.56974 6.53375C4.11865 6.97307 4.00075 7.5398 4.23491 8.12887C4.49317 8.77854 4.95289 9.23937 5.54141 9.57922C5.63598 9.63382 5.79808 9.77214 5.89051 9.83061C5.87173 9.85612 5.90929 9.8051 5.89051 9.83061C5.61296 9.61284 5.32902 9.67597 5.04871 9.46196C4.96935 9.40136 4.82509 9.28521 4.68795 9.09332C4.14369 8.77714 3.63997 7.67023 3.72624 7.02707C3.8141 6.37218 4.24071 5.98137 4.75186 5.67282C5.4595 5.24566 6.24304 5.05005 7.05001 4.9196C8.17017 4.73855 9.29651 4.74371 10.4239 4.75327C10.6774 4.75543 10.9323 4.77588 11.1833 4.81171C11.3123 4.83015 11.5196 4.83776 11.6468 4.87802C9.92046 4.97817 8.19379 5.05698 6.49493 5.5449Z" fill="#FBFBFB"/>
<path d="M9.12231 15.6787C9.12231 15.3974 9.12231 15.1443 9.12231 14.8912C9.13994 14.8862 9.15757 14.8812 9.1752 14.8762C9.20875 14.9348 9.25303 14.9896 9.27424 15.0525C9.57026 15.9309 9.94049 16.7726 10.4411 17.5514C10.4802 17.6122 10.5199 17.6879 10.5206 17.7571C10.5266 18.4066 10.5241 19.0563 10.5241 19.6971C10.1456 19.2467 9.71355 18.7832 9.34805 18.2702C9.22176 18.0929 9.24521 17.7936 9.22778 17.548C9.1842 16.935 9.15642 16.3208 9.12231 15.6787Z" fill="#FBFBFB"/>
<path d="M11.4797 11.5308C11.3636 11.6008 11.2488 11.6503 11.1139 11.6829C11.1261 11.5983 11.1583 11.5307 11.2121 11.4626C11.2669 11.4043 11.3 11.3465 11.353 11.288C11.5471 11.2546 11.6788 11.1813 11.6815 10.9416C11.5103 10.9416 11.3544 10.9416 11.1984 10.9416C11.2642 10.7905 11.2216 10.6717 11.092 10.5594C11.0894 10.5407 11.0877 10.5427 11.0877 10.5427C11.1541 10.5685 11.2213 10.5925 11.2867 10.6206C11.3944 10.667 11.5072 10.7622 11.6058 10.7482C11.673 10.7387 11.7236 10.5804 11.7738 10.4844C11.7935 10.4467 11.7921 10.3975 11.8053 10.3264C11.9449 10.7042 11.8525 11.1005 11.597 11.3339C11.5469 11.3797 11.519 11.4509 11.4797 11.5308Z" fill="#7A0F0F"/>
<path d="M11.174 10.9421C11.3551 10.9414 11.511 10.9414 11.6822 10.9414C11.6795 11.1811 11.5478 11.2544 11.341 11.2707C11.1258 11.257 10.9433 11.2597 10.7609 11.2624C10.6186 11.2021 10.4763 11.1417 10.3418 11.0847C10.4342 11.046 10.5454 10.9995 10.6773 10.9476C10.8482 10.9424 10.9986 10.9426 11.174 10.9421Z" fill="#9E0201"/>
<path d="M11.0901 10.5397C11.0298 10.5355 10.9686 10.5322 10.9073 10.529C10.9102 10.5056 10.913 10.4822 10.9158 10.4587C10.9714 10.4743 11.027 10.4898 11.0851 10.524C11.0875 10.5427 11.0892 10.5407 11.0901 10.5397Z" fill="#7A0F0F"/>
<path d="M7.82453 11.4102C7.47746 10.9507 7.57311 10.3976 7.48578 9.88324C7.51435 9.86291 7.54292 9.84259 7.57152 9.82227C7.66286 9.93291 7.78531 10.0299 7.83879 10.1572C7.93449 10.3849 7.98868 10.6308 8.05395 10.8483C8.22459 10.9406 8.38409 11.0269 8.5872 11.1166C8.73386 11.1734 8.83694 11.2268 8.91458 11.2858C8.77715 11.2904 8.66508 11.2864 8.55317 11.2892C8.37772 11.2935 8.18164 11.2423 8.06311 11.4597C8.02658 11.461 8.00571 11.462 7.98365 11.4626C7.98245 11.4622 7.97995 11.4623 7.97083 11.4468C7.916 11.4242 7.87025 11.4172 7.82453 11.4102Z" fill="#7A0F0F"/>
<path d="M7.98553 11.4631C8.00641 11.4621 8.02726 11.4611 8.08645 11.4619C8.37944 11.4448 8.63598 11.4386 8.88767 11.3996C8.96865 11.3871 9.03688 11.2885 9.1118 11.2321C9.11264 11.2349 9.10738 11.2372 9.10738 11.2372C9.42824 11.2176 9.74914 11.1831 10.0699 11.1844C10.2374 11.185 10.4047 11.2485 10.6057 11.3065C10.8234 11.3738 11.0073 11.4184 11.1912 11.4629C11.159 11.5305 11.1269 11.5981 11.0931 11.6854C11.0645 11.7384 11.0375 11.7719 10.9811 11.8012C10.7538 11.6017 10.5864 11.3474 10.2491 11.4223C10.2273 11.4271 10.1987 11.4068 10.1751 11.3946C9.96904 11.2883 9.83883 11.3526 9.77577 11.576C9.77346 11.5842 9.74599 11.585 9.73017 11.5891C9.69311 11.5344 9.65612 11.4797 9.60703 11.4072C9.58603 11.4811 9.5743 11.5224 9.56073 11.5702C9.39495 11.4659 9.23629 11.3717 9.13467 11.6393C9.12806 11.6567 9.04453 11.6436 8.99679 11.6447C8.97397 11.6424 8.95117 11.6402 8.89258 11.6399C8.82743 11.6765 8.79804 11.7113 8.76862 11.7461C8.74695 11.7672 8.72528 11.7883 8.68134 11.7909C8.56354 11.725 8.46917 11.6749 8.37222 11.6307C8.24439 11.5724 8.11452 11.5187 7.98553 11.4631Z" fill="#DF0301"/>
<path d="M8.99835 11.6671C9.04496 11.6438 9.12849 11.6569 9.13508 11.6395C9.23672 11.3718 9.39538 11.4661 9.56116 11.5703C9.57473 11.5226 9.58646 11.4812 9.60746 11.4074C9.65655 11.4799 9.69354 11.5345 9.7306 11.5892C9.74642 11.5851 9.77389 11.5844 9.7762 11.5762C9.83926 11.3527 9.96947 11.2884 10.1755 11.3948C10.1991 11.407 10.2277 11.4272 10.2495 11.4224C10.5868 11.3475 10.7542 11.6018 10.9662 11.8068C10.9599 11.8684 10.9394 11.9203 10.9061 12.005C10.7877 11.8731 10.6868 11.7606 10.6356 11.7036C10.3686 11.7036 10.136 11.6905 9.90547 11.707C9.64642 11.7257 9.38966 11.7768 9.13068 11.799C9.09022 11.8025 9.04335 11.7279 8.99835 11.6671Z" fill="#C60201"/>
<path d="M7.98419 11.463C8.11438 11.519 8.24423 11.5727 8.37206 11.6309C8.46903 11.6752 8.5634 11.7253 8.66552 11.7932C8.6446 12.0487 8.61711 12.2837 8.59118 12.5053C8.35637 12.2039 8.08475 11.8551 7.8371 11.4862C7.9009 11.4649 7.94071 11.4638 7.98049 11.4627C7.98049 11.4627 7.98301 11.4625 7.98419 11.463Z" fill="#B50201"/>
<path d="M11.212 11.4626C11.0064 11.4186 10.8225 11.3741 10.6274 11.3165C10.6527 11.2954 10.6891 11.2873 10.7428 11.2709C10.9425 11.2599 11.1249 11.2572 11.3201 11.2716C11.2998 11.3466 11.2667 11.4043 11.212 11.4626Z" fill="#0C0000"/>
<path d="M8.94103 11.2804C8.83795 11.227 8.73487 11.1737 8.60938 11.1181C8.83446 11.0797 9.08197 11.0435 9.3295 11.0073C9.33453 11.0286 9.33958 11.0499 9.3446 11.0712C9.26968 11.1127 9.19477 11.1543 9.11379 11.2167C9.1077 11.2375 9.11297 11.2352 9.09407 11.2349C9.03043 11.2498 8.98572 11.2651 8.94103 11.2804Z" fill="#0C0000"/>
<path d="M8.78412 11.741C8.7973 11.7116 8.82669 11.6768 8.8746 11.6406C8.86219 11.6714 8.83128 11.7035 8.78412 11.741Z" fill="#B50201"/>
<path d="M7.97183 11.447C7.94114 11.4636 7.90134 11.4647 7.84162 11.4651C7.82168 11.4643 7.81473 11.4366 7.82012 11.4235C7.87125 11.4174 7.91699 11.4244 7.97183 11.447Z" fill="#DF0301"/>
<path d="M8.9152 11.286C8.98533 11.265 9.03004 11.2497 9.09282 11.2319C9.0368 11.2887 8.96857 11.3873 8.88762 11.3998C8.6359 11.4387 8.37938 11.445 8.10205 11.4617C8.18226 11.2425 8.37832 11.2936 8.55379 11.2893C8.6657 11.2866 8.77778 11.2906 8.9152 11.286Z" fill="#FBFBFB"/>
<path d="M11.4783 11.5511C11.4985 11.5991 11.5464 11.6562 11.5346 11.6936C11.4312 12.0192 11.3476 12.357 11.1981 12.6603C11.0267 13.008 10.877 12.9919 10.7047 12.6537C10.6789 12.6031 10.6589 12.5494 10.6338 12.4984C10.5133 12.2542 10.3489 12.2041 10.1426 12.3826C10.0258 12.4836 9.93401 12.6262 9.86193 12.7666C9.79776 12.8916 9.7784 13.0402 9.7355 13.1771C9.60449 13.5953 9.30391 13.7117 8.96537 13.4376C8.73242 13.249 8.51962 13.0203 8.34294 12.7755C7.59398 11.7379 7.18671 10.5531 6.96445 9.29539C6.9234 9.063 6.90548 8.82635 6.87323 8.56169C7.16189 8.58253 7.41346 8.63572 7.65735 8.61072C8.11056 8.56432 8.43796 8.26624 8.7562 7.95911C8.96854 7.75416 9.152 7.49026 9.51053 7.47461C9.53398 8.00288 9.30576 8.42542 9.07112 8.84926C8.99012 8.99561 8.9076 9.15661 8.88677 9.31908C8.84057 9.67903 9.06838 9.87716 9.41569 9.80904C9.50641 9.79124 9.59405 9.73995 9.68369 9.73831C9.77982 9.73651 9.92179 9.74098 9.96578 9.80171C10.2239 10.1581 10.4593 10.5317 10.6791 10.9263C10.5446 10.9995 10.4333 11.0461 10.3409 11.0847C10.4754 11.1418 10.6177 11.2022 10.7428 11.2708C10.6891 11.2872 10.6526 11.2953 10.5936 11.2936C10.4037 11.2486 10.2365 11.1851 10.069 11.1845C9.74819 11.1832 9.42729 11.2177 9.11251 11.2165C9.19352 11.1541 9.26843 11.1126 9.34333 11.071C9.3383 11.0497 9.33327 11.0285 9.32822 11.0072C9.08072 11.0434 8.83319 11.0796 8.56452 11.1146C8.38385 11.0271 8.22432 10.9407 8.05368 10.8484C7.98841 10.631 7.93425 10.385 7.83853 10.1574C7.78504 10.0301 7.66262 9.93305 7.57125 9.82241C7.54268 9.84273 7.51411 9.86305 7.48551 9.88338C7.57286 10.3978 7.47721 10.9508 7.81888 11.4235C7.81349 11.4366 7.82044 11.4643 7.81638 11.4852C8.08394 11.8549 8.35557 12.2037 8.59037 12.5051C8.6163 12.2835 8.64381 12.0485 8.68698 11.8114C8.72433 11.7884 8.746 11.7673 8.78391 11.7409C8.83107 11.7034 8.86198 11.6713 8.91015 11.6386C8.95022 11.6403 8.97302 11.6425 8.99697 11.6671C9.042 11.7278 9.08887 11.8024 9.1293 11.799C9.38828 11.7767 9.64504 11.7256 9.90411 11.707C10.1346 11.6904 10.3672 11.7035 10.6342 11.7035C10.6854 11.7606 10.7863 11.873 10.9047 12.0049C10.938 11.9203 10.9585 11.8683 10.9943 11.8109C11.0366 11.772 11.0635 11.7385 11.1121 11.7025C11.2486 11.6502 11.3634 11.6007 11.4783 11.5511Z" fill="#FBFBFB"/>
<path d="M9.2247 1.47119C9.32627 2.0697 9.43262 2.64095 9.52743 3.21419C9.57851 3.52302 9.60975 3.83528 9.64973 4.14423C8.64424 4.18869 7.67882 4.23138 6.72101 4.27372C6.89833 2.22775 8.28615 0.527969 9.71466 0.0898438C9.36821 0.502102 9.19988 0.940531 9.2247 1.47119Z" fill="#FBFBFB"/>
<path d="M6.49493 5.5449C5.78305 5.76672 5.10711 6.01042 4.56974 6.53375C4.11865 6.97307 4.00075 7.5398 4.23491 8.12887C4.49317 8.77854 4.95289 9.23937 5.54141 9.57922C5.63598 9.63382 5.79808 9.77214 5.89051 9.83061C5.90929 9.8051 5.87173 9.85612 5.89051 9.83061C5.61296 9.61284 5.32902 9.67597 5.04871 9.46196C4.96935 9.40136 4.82509 9.28521 4.68795 9.09332C4.14369 8.77714 3.63997 7.67023 3.72624 7.02707C3.8141 6.37218 4.24071 5.98137 4.75186 5.67282C5.4595 5.24566 6.24304 5.05005 7.05001 4.9196C8.17017 4.73855 9.29651 4.74371 10.4239 4.75327C10.6774 4.75543 10.9323 4.77588 11.1833 4.81171C11.3123 4.83015 11.5196 4.83776 11.6468 4.87802C9.92046 4.97817 8.19379 5.05698 6.49493 5.5449Z" fill="#FBFBFB"/>
<path d="M9.12231 15.6787C9.12231 15.3974 9.12231 15.1443 9.12231 14.8912C9.13994 14.8862 9.15757 14.8812 9.1752 14.8762C9.20875 14.9348 9.25303 14.9896 9.27424 15.0525C9.57026 15.9309 9.94049 16.7726 10.4411 17.5514C10.4802 17.6122 10.5199 17.6879 10.5206 17.7571C10.5266 18.4066 10.5241 19.0563 10.5241 19.6971C10.1456 19.2467 9.71355 18.7832 9.34805 18.2702C9.22176 18.0929 9.24521 17.7936 9.22778 17.548C9.1842 16.935 9.15642 16.3208 9.12231 15.6787Z" fill="#FBFBFB"/>
<path d="M11.4797 11.5308C11.3636 11.6008 11.2488 11.6503 11.1139 11.6829C11.1261 11.5983 11.1583 11.5307 11.2121 11.4626C11.2669 11.4043 11.3 11.3465 11.353 11.288C11.5471 11.2546 11.6788 11.1813 11.6815 10.9416C11.5103 10.9416 11.3544 10.9416 11.1984 10.9416C11.2642 10.7905 11.2216 10.6717 11.092 10.5594C11.0894 10.5407 11.0877 10.5427 11.0877 10.5427C11.1541 10.5685 11.2213 10.5925 11.2867 10.6206C11.3944 10.667 11.5072 10.7622 11.6058 10.7482C11.673 10.7387 11.7236 10.5804 11.7738 10.4844C11.7935 10.4467 11.7921 10.3975 11.8053 10.3264C11.9449 10.7042 11.8525 11.1005 11.597 11.3339C11.5469 11.3797 11.519 11.4509 11.4797 11.5308Z" fill="#7A0F0F"/>
<path d="M11.174 10.9421C11.3551 10.9414 11.511 10.9414 11.6822 10.9414C11.6795 11.1811 11.5478 11.2544 11.341 11.2707C11.1258 11.257 10.9433 11.2597 10.7609 11.2624C10.6186 11.2021 10.4763 11.1417 10.3418 11.0847C10.4342 11.046 10.5454 10.9995 10.6773 10.9476C10.8482 10.9424 10.9986 10.9426 11.174 10.9421Z" fill="#9E0201"/>
<path d="M11.0901 10.5397C11.0298 10.5355 10.9686 10.5322 10.9073 10.529C10.9102 10.5056 10.913 10.4822 10.9158 10.4587C10.9714 10.4743 11.027 10.4898 11.0851 10.524C11.0875 10.5427 11.0892 10.5407 11.0901 10.5397Z" fill="#7A0F0F"/>
<path d="M7.82453 11.4102C7.47746 10.9507 7.57311 10.3976 7.48578 9.88324C7.51435 9.86291 7.54292 9.84259 7.57152 9.82227C7.66286 9.93291 7.78531 10.0299 7.83879 10.1572C7.93449 10.3849 7.98868 10.6308 8.05395 10.8483C8.22459 10.9406 8.38409 11.0269 8.5872 11.1166C8.73386 11.1734 8.83694 11.2268 8.91458 11.2858C8.77715 11.2904 8.66508 11.2864 8.55317 11.2892C8.37772 11.2935 8.18164 11.2423 8.06311 11.4597C8.02658 11.461 8.00571 11.462 7.98365 11.4626C7.98245 11.4622 7.97995 11.4623 7.97083 11.4468C7.916 11.4242 7.87025 11.4172 7.82453 11.4102Z" fill="#7A0F0F"/>
<path d="M7.98553 11.4631C8.00641 11.4621 8.02726 11.4611 8.08645 11.4619C8.37944 11.4448 8.63598 11.4386 8.88767 11.3996C8.96865 11.3871 9.03688 11.2885 9.1118 11.2321C9.11264 11.2349 9.10738 11.2372 9.10738 11.2372C9.42824 11.2176 9.74914 11.1831 10.0699 11.1844C10.2374 11.185 10.4047 11.2485 10.6057 11.3065C10.8234 11.3738 11.0073 11.4184 11.1912 11.4629C11.159 11.5305 11.1269 11.5981 11.0931 11.6854C11.0645 11.7384 11.0375 11.7719 10.9811 11.8012C10.7538 11.6017 10.5864 11.3474 10.2491 11.4223C10.2273 11.4271 10.1987 11.4068 10.1751 11.3946C9.96904 11.2883 9.83883 11.3526 9.77577 11.576C9.77346 11.5842 9.74599 11.585 9.73017 11.5891C9.69311 11.5344 9.65612 11.4797 9.60703 11.4072C9.58603 11.4811 9.5743 11.5224 9.56073 11.5702C9.39495 11.4659 9.23629 11.3717 9.13467 11.6393C9.12806 11.6567 9.04453 11.6436 8.99679 11.6447C8.97397 11.6424 8.95117 11.6402 8.89258 11.6399C8.82743 11.6765 8.79804 11.7113 8.76862 11.7461C8.74695 11.7672 8.72528 11.7883 8.68134 11.7909C8.56354 11.725 8.46917 11.6749 8.37222 11.6307C8.24439 11.5724 8.11452 11.5187 7.98553 11.4631Z" fill="#DF0301"/>
<path d="M8.99835 11.6671C9.04496 11.6438 9.12849 11.6569 9.13508 11.6395C9.23672 11.3718 9.39538 11.4661 9.56116 11.5703C9.57473 11.5226 9.58646 11.4812 9.60746 11.4074C9.65655 11.4799 9.69354 11.5345 9.7306 11.5892C9.74642 11.5851 9.77389 11.5844 9.7762 11.5762C9.83926 11.3527 9.96947 11.2884 10.1755 11.3948C10.1991 11.407 10.2277 11.4272 10.2495 11.4224C10.5868 11.3475 10.7542 11.6018 10.9662 11.8068C10.9599 11.8684 10.9394 11.9203 10.9061 12.005C10.7877 11.8731 10.6868 11.7606 10.6356 11.7036C10.3686 11.7036 10.136 11.6905 9.90547 11.707C9.64642 11.7257 9.38966 11.7768 9.13068 11.799C9.09022 11.8025 9.04335 11.7279 8.99835 11.6671Z" fill="#C60201"/>
<path d="M7.98419 11.463C8.11438 11.519 8.24423 11.5727 8.37206 11.6309C8.46903 11.6752 8.5634 11.7253 8.66552 11.7932C8.6446 12.0487 8.61711 12.2837 8.59118 12.5053C8.35637 12.2039 8.08475 11.8551 7.8371 11.4862C7.9009 11.4649 7.94071 11.4638 7.98049 11.4627C7.98049 11.4627 7.98301 11.4625 7.98419 11.463Z" fill="#B50201"/>
<path d="M11.212 11.4626C11.0064 11.4186 10.8225 11.3741 10.6274 11.3165C10.6527 11.2954 10.6891 11.2873 10.7428 11.2709C10.9425 11.2599 11.1249 11.2572 11.3201 11.2716C11.2998 11.3466 11.2667 11.4043 11.212 11.4626Z" fill="#0C0000"/>
<path d="M8.94103 11.2804C8.83795 11.227 8.73487 11.1737 8.60938 11.1181C8.83446 11.0797 9.08197 11.0435 9.3295 11.0073C9.33453 11.0286 9.33958 11.0499 9.3446 11.0712C9.26968 11.1127 9.19477 11.1543 9.11379 11.2167C9.1077 11.2375 9.11297 11.2352 9.09407 11.2349C9.03043 11.2498 8.98572 11.2651 8.94103 11.2804Z" fill="#0C0000"/>
<path d="M8.78412 11.741C8.7973 11.7116 8.82669 11.6768 8.8746 11.6406C8.86219 11.6714 8.83128 11.7035 8.78412 11.741Z" fill="#B50201"/>
<path d="M7.97183 11.447C7.94114 11.4636 7.90134 11.4647 7.84162 11.4651C7.82168 11.4643 7.81473 11.4366 7.82012 11.4235C7.87125 11.4174 7.91699 11.4244 7.97183 11.447Z" fill="#DF0301"/>
<path d="M8.9152 11.286C8.98533 11.265 9.03004 11.2497 9.09282 11.2319C9.0368 11.2887 8.96857 11.3873 8.88762 11.3998C8.6359 11.4387 8.37938 11.445 8.10205 11.4617C8.18226 11.2425 8.37832 11.2936 8.55379 11.2893C8.6657 11.2866 8.77778 11.2906 8.9152 11.286Z" fill="#FBFBFB"/>
</svg>
