<svg width="60" height="60" viewBox="0 0 60 60" fill="none" xmlns="http://www.w3.org/2000/svg">
<rect width="60" height="60" rx="10" fill="white"/>
<path fill-rule="evenodd" clip-rule="evenodd" d="M50.3714 16.2395C50.9542 13.3983 48.1635 11.0371 45.458 12.0824L12.2945 24.8956C9.27318 26.0629 9.13856 30.2878 12.0794 31.645L19.3015 34.9784L22.7371 47.003C22.9156 47.6276 23.4112 48.1113 24.04 48.2743C24.6689 48.4371 25.337 48.2552 25.7963 47.7958L31.0885 42.5035L38.502 48.0636C40.654 49.6775 43.7534 48.502 44.2938 45.8669L50.3714 16.2395ZM13.616 28.3159L46.7795 15.5027L40.702 45.1303L32.0166 38.6161C31.2867 38.0686 30.2654 38.1412 29.6202 38.7864L27.3535 41.0531L28.0346 37.3074L41.3796 23.9625C42.0291 23.313 42.0977 22.2832 41.5402 21.5533C40.9827 20.8234 39.9712 20.6187 39.1737 21.0743L20.7438 31.6056L13.616 28.3159ZM22.991 34.5446L24.1027 38.4357L24.5295 36.0881C24.5962 35.7212 24.7732 35.3834 25.0369 35.1197L29.1067 31.0501L22.991 34.5446Z" fill="#D40404"/>
</svg>
