<svg width="60" height="60" viewBox="0 0 60 60" fill="none" xmlns="http://www.w3.org/2000/svg">
<rect width="60" height="60" rx="10" fill="white"/>
<path fill-rule="evenodd" clip-rule="evenodd" d="M30 41C36.0751 41 41 36.0751 41 30C41 23.9249 36.0751 19 30 19C23.9249 19 19 23.9249 19 30C19 36.0751 23.9249 41 30 41ZM30 37.3333C34.05 37.3333 37.3333 34.05 37.3333 30C37.3333 25.9499 34.05 22.6667 30 22.6667C25.9499 22.6667 22.6667 25.9499 22.6667 30C22.6667 34.05 25.9499 37.3333 30 37.3333Z" fill="#D40404"/>
<path d="M41.0001 17.167C39.9875 17.167 39.1667 17.9878 39.1667 19.0003C39.1667 20.0128 39.9875 20.8337 41.0001 20.8337C42.0126 20.8337 42.8334 20.0128 42.8334 19.0003C42.8334 17.9878 42.0126 17.167 41.0001 17.167Z" fill="#D40404"/>
<path fill-rule="evenodd" clip-rule="evenodd" d="M11.0322 15.8391C9.83325 18.1921 9.83325 21.2724 9.83325 27.433V32.5663C9.83325 38.7269 9.83325 41.8073 11.0322 44.1602C12.0868 46.23 13.7696 47.9128 15.8394 48.9673C18.1924 50.1663 21.2727 50.1663 27.4333 50.1663H32.5666C38.7271 50.1663 41.8075 50.1663 44.1604 48.9673C46.2302 47.9128 47.9131 46.23 48.9676 44.1602C50.1666 41.8073 50.1666 38.7269 50.1666 32.5663V27.433C50.1666 21.2724 50.1666 18.1921 48.9676 15.8391C47.9131 13.7693 46.2302 12.0865 44.1604 11.0319C41.8075 9.83301 38.7271 9.83301 32.5666 9.83301H27.4333C21.2727 9.83301 18.1924 9.83301 15.8394 11.0319C13.7696 12.0865 12.0868 13.7693 11.0322 15.8391ZM32.5666 13.4997H27.4333C24.2925 13.4997 22.1574 13.5025 20.5071 13.6374C18.8995 13.7687 18.0775 14.0068 17.504 14.299C16.1241 15.002 15.0023 16.1239 14.2992 17.5037C14.007 18.0772 13.7689 18.8993 13.6376 20.5068C13.5028 22.1571 13.4999 24.2922 13.4999 27.433V32.5663C13.4999 35.7072 13.5028 37.8421 13.6376 39.4925C13.7689 41.1001 14.007 41.9222 14.2992 42.4957C15.0023 43.8754 16.1241 44.9973 17.504 45.7003C18.0775 45.9926 18.8995 46.2307 20.5071 46.362C22.1574 46.4967 24.2925 46.4997 27.4333 46.4997H32.5666C35.7075 46.4997 37.8424 46.4967 39.4927 46.362C41.1004 46.2307 41.9225 45.9926 42.4959 45.7003C43.8757 44.9973 44.9975 43.8754 45.7006 42.4957C45.9928 41.9222 46.231 41.1001 46.3622 39.4925C46.497 37.8421 46.4999 35.7072 46.4999 32.5663V27.433C46.4999 24.2922 46.497 22.1571 46.3622 20.5068C46.231 18.8993 45.9928 18.0772 45.7006 17.5037C44.9975 16.1239 43.8757 15.002 42.4959 14.299C41.9225 14.0068 41.1004 13.7687 39.4927 13.6374C37.8424 13.5025 35.7075 13.4997 32.5666 13.4997Z" fill="#D40404"/>
</svg>
