<svg xmlns="http://www.w3.org/2000/svg" fill="none" viewBox="3.72 0.09 61.4 19.61">
<path d="M22.3691 15.6348L22.4668 16.4062C22.4668 16.4844 22.4521 16.5658 22.4229 16.6504C22.3968 16.735 22.3529 16.7773 22.291 16.7773C22.1934 16.7773 22.1445 16.6569 22.1445 16.416C22.1445 16.3151 22.1673 16.1654 22.2129 15.9668C22.2585 15.7715 22.2812 15.6217 22.2812 15.5176C22.2812 15.3158 22.1771 15.2018 21.9688 15.1758C21.1419 15.0521 20.5332 14.8438 20.1426 14.5508C19.7715 14.2773 19.5404 13.9746 19.4492 13.6426C19.3581 13.3073 19.3109 13.0404 19.3076 12.8418C19.2979 12.4805 19.2311 12.2445 19.1074 12.1338L19.1514 12.085C19.2458 12.1729 19.3304 12.2168 19.4053 12.2168C19.6917 12.2168 20.0482 12.1794 20.4746 12.1045C20.9043 12.0264 21.1989 11.9792 21.3584 11.9629C21.5212 11.9434 21.6611 11.8604 21.7783 11.7139L21.8857 11.7969C21.7816 11.9271 21.7295 12.0752 21.7295 12.2412C21.7295 12.4072 21.7458 12.5651 21.7783 12.7148C21.8141 12.8613 21.8678 12.998 21.9395 13.125C22.1022 13.4082 22.3594 13.5498 22.7109 13.5498C23.0658 13.5498 23.3359 13.4473 23.5215 13.2422C23.707 13.0371 23.7998 12.7572 23.7998 12.4023L23.8047 8.8916C23.8047 8.68652 23.7428 8.52376 23.6191 8.40332L23.7168 8.30078C23.847 8.43099 24.0098 8.49609 24.2051 8.49609H25.9043C26.1029 8.49609 26.2656 8.43099 26.3926 8.30078L26.4902 8.40332C26.3633 8.52702 26.2998 8.68978 26.2998 8.8916V12.6904C26.2998 13.7549 25.8132 14.4889 24.8398 14.8926H24.835V15.9521C24.835 16.0661 24.861 16.2337 24.9131 16.4551C24.9684 16.6764 24.9961 16.8424 24.9961 16.9531C24.9961 17.1289 24.9261 17.2168 24.7861 17.2168C24.6657 17.2168 24.6055 17.1484 24.6055 17.0117C24.6055 16.8783 24.6266 16.7106 24.6689 16.5088C24.7113 16.307 24.7324 16.1344 24.7324 15.9912C24.7324 15.848 24.6641 15.7031 24.5273 15.5566C24.2637 15.2799 23.9219 15.1416 23.502 15.1416C23.388 15.1416 23.3001 15.1823 23.2383 15.2637C23.1797 15.3483 23.1504 15.459 23.1504 15.5957C23.1504 15.7324 23.1797 15.9473 23.2383 16.2402C23.2969 16.5365 23.3262 16.7415 23.3262 16.8555C23.3262 17.1061 23.2611 17.2314 23.1309 17.2314C23.0592 17.2314 23.0072 17.1924 22.9746 17.1143C22.9421 17.0394 22.9258 16.9613 22.9258 16.8799L23.043 15.4639C23.043 15.3564 22.9941 15.2686 22.8965 15.2002C22.7988 15.1351 22.6947 15.1025 22.584 15.1025C22.4408 15.1025 22.3691 15.2799 22.3691 15.6348ZM24.9424 18.7939C24.9424 18.9144 24.9017 18.9746 24.8203 18.9746C24.7389 18.9746 24.6982 18.916 24.6982 18.7988C24.6982 18.5254 24.7389 18.2145 24.8203 17.8662C24.9017 18.208 24.9424 18.5173 24.9424 18.7939ZM31.9932 15.791L32.0273 15.3223C32.0273 15.2409 31.9883 15.1774 31.9102 15.1318C31.832 15.0895 31.7474 15.0684 31.6562 15.0684C31.5651 15.0684 31.4837 15.0928 31.4121 15.1416C31.3405 15.1904 31.3047 15.2604 31.3047 15.3516V16.4746C31.3047 16.6374 31.3389 16.8766 31.4072 17.1924C31.4756 17.5081 31.5098 17.7327 31.5098 17.8662C31.5098 18.0029 31.4805 18.1152 31.4219 18.2031C31.3633 18.291 31.2819 18.335 31.1777 18.335C31.0768 18.335 31.0003 18.2894 30.9482 18.1982C30.8962 18.1071 30.8701 17.9883 30.8701 17.8418C30.8701 17.6953 30.9076 17.4414 30.9824 17.0801C31.0573 16.7188 31.0947 16.4388 31.0947 16.2402C31.0947 15.4362 30.945 15.0342 30.6455 15.0342C30.2419 15.0342 30.04 15.0179 30.04 14.9854V14.9951C30.04 15.2197 30.0889 15.5485 30.1865 15.9814C30.2874 16.4176 30.3379 16.7301 30.3379 16.9189C30.3379 17.1077 30.3037 17.2624 30.2354 17.3828C30.167 17.5065 30.0612 17.5684 29.918 17.5684C29.778 17.5684 29.6673 17.5098 29.5859 17.3926C29.5078 17.2754 29.4688 17.1224 29.4688 16.9336C29.4688 16.748 29.516 16.4274 29.6104 15.9717C29.7048 15.5192 29.752 15.1758 29.752 14.9414C28.9805 14.6973 28.3994 14.2985 28.0088 13.7451C27.6214 13.1917 27.4277 12.5081 27.4277 11.6943C27.4277 10.0081 28.2773 8.94368 29.9766 8.50098C30.5267 8.35775 31.0947 8.28613 31.6807 8.28613C32.2699 8.28613 32.7695 8.31868 33.1797 8.38379C33.5931 8.44889 33.9919 8.56445 34.376 8.73047C34.7633 8.89323 35.0921 9.10156 35.3623 9.35547C35.6357 9.60612 35.8538 9.93164 36.0166 10.332C36.1794 10.7292 36.2607 11.1833 36.2607 11.6943C36.2607 12.736 35.9678 13.5433 35.3818 14.1162C34.7959 14.6859 33.9723 15.0358 32.9111 15.166C32.8981 15.1888 32.8916 15.2246 32.8916 15.2734L32.916 15.542C32.916 15.708 32.8704 15.791 32.7793 15.791C32.6882 15.791 32.6426 15.7113 32.6426 15.5518L32.6572 15.2783C32.6572 15.1807 32.5872 15.1318 32.4473 15.1318C32.4342 15.1611 32.4277 15.2165 32.4277 15.2979L32.4521 15.7715C32.4521 15.8691 32.4342 15.9635 32.3984 16.0547C32.3626 16.1458 32.3024 16.1914 32.2178 16.1914C32.068 16.1914 31.9932 16.0579 31.9932 15.791ZM30.1475 11.6992C30.1475 12.8906 30.7139 13.4863 31.8467 13.4863C32.9795 13.4863 33.5459 12.8906 33.5459 11.6992C33.5459 11.1523 33.3994 10.734 33.1064 10.4443C32.8135 10.1546 32.3936 10.0098 31.8467 10.0098C31.2998 10.0098 30.8799 10.1546 30.5869 10.4443C30.2939 10.734 30.1475 11.1523 30.1475 11.6992ZM39.9326 13.1641C40.0791 13.2357 40.1523 13.3691 40.1523 13.5645V14.6045C40.1523 14.8031 40.2158 14.9658 40.3428 15.0928L40.2451 15.1904C40.1182 15.0635 39.9554 15 39.7568 15H38.0625C37.8639 15 37.7012 15.0635 37.5742 15.1904L37.4766 15.0928C37.6035 14.9658 37.667 14.8031 37.667 14.6045V8.8916C37.667 8.69303 37.6035 8.53027 37.4766 8.40332L37.5742 8.30078C37.7044 8.43099 37.8672 8.49609 38.0625 8.49609H39.7568C39.9521 8.49609 40.1149 8.43099 40.2451 8.30078L40.3428 8.40332C40.2158 8.53027 40.1523 8.69303 40.1523 8.8916V10.4102C40.1523 10.6055 40.1133 10.7926 40.0352 10.9717L40.1084 11.001C40.1833 10.8252 40.2923 10.6689 40.4355 10.5322L42.2764 8.76953C42.3512 8.69792 42.3968 8.63281 42.4131 8.57422C42.4326 8.51562 42.4277 8.4375 42.3984 8.33984L42.5693 8.27637C42.6312 8.42285 42.7598 8.49609 42.9551 8.49609H45.4062C45.5885 8.49609 45.7773 8.46029 45.9727 8.38867L45.9971 8.45703C45.8148 8.52539 45.6504 8.62467 45.5039 8.75488L43.5215 10.4785C43.3783 10.6087 43.2171 10.6624 43.0381 10.6396L43.0186 10.791C43.1943 10.8073 43.3376 10.8984 43.4482 11.0645L45.9775 14.6729C46.0882 14.8356 46.2282 14.9626 46.3975 15.0537L46.3535 15.1318C46.1875 15.0439 46.0052 15 45.8066 15H43.4482C43.2529 15 43.1162 15.0732 43.0381 15.2197L42.8818 15.1367C42.9274 15.0423 42.9453 14.9642 42.9355 14.9023C42.9258 14.8372 42.8916 14.7591 42.833 14.668L41.4365 12.6074C41.3291 12.4414 41.2868 12.2689 41.3096 12.0898L41.1777 12.0752C41.1549 12.251 41.0654 12.4023 40.9092 12.5293L40.46 12.915C40.3753 12.9834 40.3021 13.0241 40.2402 13.0371C40.1816 13.0501 40.1051 13.0387 40.0107 13.0029L39.9326 13.1641ZM49.9326 14.1895L49.8545 13.584V13.5303C49.9229 13.4098 50.0156 13.3496 50.1328 13.3496L54.1172 13.3545C54.3158 13.3545 54.4769 13.291 54.6006 13.1641L54.6982 13.2617C54.555 13.4049 54.4834 13.6784 54.4834 14.082C54.4834 14.082 54.4834 14.1764 54.4834 14.3652C54.4834 14.694 54.555 14.9333 54.6982 15.083L54.6006 15.1807C54.4736 15.0537 54.3125 14.9902 54.1172 14.9902H48.3408C48.0511 14.9902 47.8379 15.0456 47.7012 15.1562C47.5449 15.2865 47.4668 15.6543 47.4668 16.2598C47.4668 16.5039 47.5042 16.8636 47.5791 17.3389C47.654 17.8174 47.6914 18.1771 47.6914 18.418C47.6914 18.7663 47.5677 18.9404 47.3203 18.9404C47.0534 18.9404 46.9199 18.7614 46.9199 18.4033C46.9199 18.1592 46.9736 17.7979 47.0811 17.3193C47.1885 16.8408 47.2422 16.4779 47.2422 16.2305L47.2178 14.5947V8.90137C47.2178 8.69954 47.1559 8.53841 47.0322 8.41797L47.1299 8.31543C47.2633 8.44238 47.4261 8.50586 47.6182 8.50586H53.8877C54.0863 8.50586 54.249 8.44238 54.376 8.31543L54.4736 8.41797C54.3304 8.5612 54.2588 8.83138 54.2588 9.22852V9.50195C54.2588 9.85026 54.3304 10.0944 54.4736 10.2344L54.376 10.3271C54.2132 10.1611 53.8307 10.0781 53.2285 10.0781L50.8018 10.1904C50.2028 10.1904 49.8219 10.1074 49.6592 9.94141L49.5566 10.0391C49.6836 10.1628 49.7471 10.3271 49.7471 10.5322C49.7471 10.734 49.6836 10.8968 49.5566 11.0205L49.6592 11.1133C49.8154 10.9505 50.1442 10.8691 50.6455 10.8691L52.6914 10.9814C53.196 10.9814 53.5296 10.9001 53.6924 10.7373L53.7949 10.835C53.6517 10.9782 53.5801 11.2533 53.5801 11.6602V11.9336C53.5801 12.2689 53.6517 12.5114 53.7949 12.6611L53.6924 12.7637C53.5361 12.6009 53.2057 12.5195 52.7012 12.5195L50.6553 12.627C50.154 12.627 49.8219 12.5456 49.6592 12.3828L49.5615 12.4805C49.6592 12.5781 49.7161 12.6953 49.7324 12.832C49.7487 12.9655 49.7585 13.0615 49.7617 13.1201C49.765 13.1755 49.765 13.2633 49.7617 13.3838C49.7585 13.501 49.7568 13.571 49.7568 13.5938L49.6738 14.1797C49.6738 14.2969 49.7161 14.3555 49.8008 14.3555C49.8887 14.3555 49.9326 14.3001 49.9326 14.1895ZM63.7852 16.6016L63.8926 15.5908C63.8926 15.1807 63.7249 14.8682 63.3896 14.6533C63.0576 14.4352 62.7077 14.3392 62.3398 14.3652C61.972 14.388 61.7148 14.5117 61.5684 14.7363C61.4935 14.8438 61.4561 14.9707 61.4561 15.1172L61.4316 16.4258C61.4316 16.6048 61.4593 16.8701 61.5146 17.2217C61.57 17.5765 61.5977 17.8434 61.5977 18.0225C61.5977 18.3382 61.5081 18.4961 61.3291 18.4961C61.1501 18.4961 61.0605 18.3431 61.0605 18.0371C61.0605 17.8353 61.0898 17.5456 61.1484 17.168C61.207 16.7904 61.2396 16.5039 61.2461 16.3086C61.2559 16.1133 61.2607 15.6966 61.2607 15.0586C61.2607 14.8893 61.2087 14.694 61.1045 14.4727C61.0003 14.2513 60.8359 13.9469 60.6113 13.5596C60.3867 13.1722 60.2028 12.8304 60.0596 12.5342L59.9131 12.4512C59.835 12.5944 59.6966 12.666 59.498 12.666L59.0879 12.6807C58.8079 12.6807 58.598 12.6123 58.458 12.4756L58.3555 12.5732C58.3652 12.6937 58.3701 12.9508 58.3701 13.3447L58.3652 14.541C58.3652 14.8991 58.3717 15.1628 58.3848 15.332L58.4775 16.0498C58.4775 16.1833 58.432 16.25 58.3408 16.25C58.2497 16.25 58.2041 16.1882 58.2041 16.0645L58.2822 15.459C58.2822 15.3125 58.2383 15.1953 58.1504 15.1074C58.0658 15.0228 57.9535 14.9805 57.8135 14.9805C57.6768 14.9805 57.5547 15.0407 57.4473 15.1611C57.3431 15.2848 57.291 15.4443 57.291 15.6396C57.291 15.835 57.3268 16.0986 57.3984 16.4307C57.4701 16.766 57.5059 17.0068 57.5059 17.1533C57.5059 17.4593 57.3968 17.6123 57.1787 17.6123C56.9606 17.6123 56.8516 17.4626 56.8516 17.1631C56.8516 17.0231 56.8825 16.779 56.9443 16.4307C57.0094 16.0824 57.042 15.8057 57.042 15.6006C57.042 15.3955 56.9948 15.2262 56.9004 15.0928C56.806 14.9626 56.6986 14.8975 56.5781 14.8975C56.4577 14.8975 56.3551 14.9382 56.2705 15.0195C56.1859 15.1042 56.1436 15.2083 56.1436 15.332L56.2754 16.4893C56.2754 16.6878 56.2021 16.7871 56.0557 16.7871C55.9092 16.7871 55.8359 16.6862 55.8359 16.4844C55.8359 16.3672 55.8669 16.1621 55.9287 15.8691C55.9906 15.5794 56.0199 15.3532 56.0166 15.1904C56.0133 15.0277 56.0117 12.9215 56.0117 8.87207C56.0117 8.67025 55.9499 8.50911 55.8262 8.38867L55.9238 8.29102C56.0508 8.41471 56.2119 8.47656 56.4072 8.47656H60.7822C61.4658 8.47656 61.9248 8.49772 62.1592 8.54004C62.3968 8.5791 62.6035 8.62142 62.7793 8.66699C62.9583 8.71257 63.1081 8.76953 63.2285 8.83789C63.3522 8.90299 63.4759 8.986 63.5996 9.08691C63.7266 9.18457 63.8275 9.29688 63.9023 9.42383C64.0749 9.71354 64.1611 10.0212 64.1611 10.3467C64.1611 10.6722 64.1351 10.9391 64.083 11.1475C64.0342 11.3525 63.9512 11.5462 63.834 11.7285C63.5801 12.1224 63.1341 12.3193 62.4961 12.3193L62.457 12.4316C62.6621 12.513 62.7988 12.6253 62.8672 12.7686C63.1536 13.3936 63.3652 13.7907 63.502 13.96C63.6387 14.126 63.7656 14.2594 63.8828 14.3604C64 14.4613 64.1676 14.5638 64.3857 14.668C64.6038 14.7721 64.7357 14.8405 64.7812 14.873C64.8268 14.9023 64.8496 14.9268 64.8496 14.9463C64.8496 15.2718 64.8936 15.6901 64.9814 16.2012C65.0693 16.7122 65.1133 17.041 65.1133 17.1875C65.1133 17.334 65.1068 17.4398 65.0938 17.5049C65.084 17.57 65.0596 17.6335 65.0205 17.6953C64.9814 17.7604 64.9245 17.793 64.8496 17.793C64.7747 17.793 64.7178 17.7393 64.6787 17.6318C64.6429 17.5244 64.625 17.3926 64.625 17.2363C64.625 17.0801 64.6462 16.8001 64.6885 16.3965C64.7308 15.9961 64.752 15.6934 64.752 15.4883C64.752 15.0814 64.6201 14.8779 64.3564 14.8779C64.2262 14.8779 64.1286 14.9007 64.0635 14.9463C64.0016 14.9919 63.9707 15.0846 63.9707 15.2246C63.9707 15.3678 64 15.5941 64.0586 15.9033C64.1172 16.2126 64.1465 16.4453 64.1465 16.6016C64.1465 16.7611 64.0863 16.8408 63.9658 16.8408C63.8454 16.8408 63.7852 16.7611 63.7852 16.6016ZM60.5332 10.0977L59.3809 10.1318C58.9089 10.1318 58.6012 10.0618 58.458 9.92188L58.3555 10.0146C58.4857 10.1416 58.5508 10.3044 58.5508 10.5029V10.8301C58.5508 11.0254 58.4857 11.1882 58.3555 11.3184L58.458 11.416C58.598 11.2728 58.8877 11.2012 59.3271 11.2012L60.5625 11.2451C60.8913 11.2451 61.1452 11.2028 61.3242 11.1182C61.5065 11.0303 61.5977 10.8708 61.5977 10.6396C61.5977 10.4932 61.5472 10.3792 61.4463 10.2979C61.3454 10.2132 61.2233 10.1595 61.0801 10.1367C60.9368 10.1107 60.7546 10.0977 60.5332 10.0977Z" fill="#D40404"/>
<path d="M11.4783 11.5511C11.4985 11.5991 11.5464 11.6562 11.5346 11.6936C11.4312 12.0192 11.3476 12.357 11.1981 12.6603C11.0267 13.008 10.877 12.9919 10.7047 12.6537C10.6789 12.6031 10.6589 12.5494 10.6338 12.4984C10.5133 12.2542 10.3489 12.2041 10.1426 12.3826C10.0258 12.4836 9.93401 12.6262 9.86193 12.7666C9.79776 12.8916 9.7784 13.0402 9.7355 13.1771C9.60449 13.5953 9.30391 13.7117 8.96537 13.4376C8.73242 13.249 8.51962 13.0203 8.34294 12.7755C7.59398 11.7379 7.18671 10.5531 6.96445 9.29539C6.9234 9.063 6.90548 8.82635 6.87323 8.56169C7.16189 8.58253 7.41346 8.63572 7.65735 8.61072C8.11056 8.56432 8.43796 8.26624 8.7562 7.95911C8.96854 7.75416 9.152 7.49026 9.51053 7.47461C9.53398 8.00288 9.30576 8.42542 9.07112 8.84926C8.99012 8.99561 8.9076 9.15661 8.88677 9.31908C8.84057 9.67903 9.06838 9.87716 9.41569 9.80904C9.50641 9.79124 9.59405 9.73995 9.68369 9.73831C9.77982 9.73651 9.92179 9.74098 9.96578 9.80171C10.2239 10.1581 10.4593 10.5317 10.6791 10.9263C10.5446 10.9995 10.4333 11.0461 10.3409 11.0847C10.4754 11.1418 10.6177 11.2022 10.7428 11.2708C10.6891 11.2872 10.6526 11.2953 10.5936 11.2936C10.4037 11.2486 10.2365 11.1851 10.069 11.1845C9.74819 11.1832 9.42729 11.2177 9.11251 11.2165C9.19352 11.1541 9.26843 11.1126 9.34333 11.071C9.3383 11.0497 9.33327 11.0285 9.32822 11.0072C9.08072 11.0434 8.83319 11.0796 8.56452 11.1146C8.38385 11.0271 8.22432 10.9407 8.05368 10.8484C7.98841 10.631 7.93425 10.385 7.83853 10.1574C7.78504 10.0301 7.66262 9.93305 7.57125 9.82241C7.54268 9.84273 7.51411 9.86305 7.48551 9.88338C7.57286 10.3978 7.47721 10.9508 7.81888 11.4235C7.81349 11.4366 7.82044 11.4643 7.81638 11.4852C8.08394 11.8549 8.35557 12.2037 8.59037 12.5051C8.6163 12.2835 8.64381 12.0485 8.68698 11.8114C8.72433 11.7884 8.746 11.7673 8.78391 11.7409C8.83107 11.7034 8.86198 11.6713 8.91015 11.6386C8.95022 11.6403 8.97302 11.6425 8.99697 11.6671C9.042 11.7278 9.08887 11.8024 9.1293 11.799C9.38828 11.7767 9.64504 11.7256 9.90411 11.707C10.1346 11.6904 10.3672 11.7035 10.6342 11.7035C10.6854 11.7606 10.7863 11.873 10.9047 12.0049C10.938 11.9203 10.9585 11.8683 10.9943 11.8109C11.0366 11.772 11.0635 11.7385 11.1121 11.7025C11.2486 11.6502 11.3634 11.6007 11.4783 11.5511Z" fill="#FBFBFB"/>
<path d="M9.2247 1.47119C9.32627 2.0697 9.43262 2.64095 9.52743 3.21419C9.57851 3.52302 9.60975 3.83528 9.64973 4.14423C8.64424 4.18869 7.67882 4.23138 6.72101 4.27372C6.89833 2.22775 8.28615 0.527969 9.71466 0.0898438C9.36821 0.502102 9.19988 0.940531 9.2247 1.47119Z" fill="#FBFBFB"/>
<path d="M6.49493 5.5449C5.78305 5.76672 5.10711 6.01042 4.56974 6.53375C4.11865 6.97307 4.00075 7.5398 4.23491 8.12887C4.49317 8.77854 4.95289 9.23937 5.54141 9.57922C5.63598 9.63382 5.79808 9.77214 5.89051 9.83061C5.87173 9.85612 5.90929 9.8051 5.89051 9.83061C5.61296 9.61284 5.32902 9.67597 5.04871 9.46196C4.96935 9.40136 4.82509 9.28521 4.68795 9.09332C4.14369 8.77714 3.63997 7.67023 3.72624 7.02707C3.8141 6.37218 4.24071 5.98137 4.75186 5.67282C5.4595 5.24566 6.24304 5.05005 7.05001 4.9196C8.17017 4.73855 9.29651 4.74371 10.4239 4.75327C10.6774 4.75543 10.9323 4.77588 11.1833 4.81171C11.3123 4.83015 11.5196 4.83776 11.6468 4.87802C9.92046 4.97817 8.19379 5.05698 6.49493 5.5449Z" fill="#FBFBFB"/>
<path d="M9.12231 15.6787C9.12231 15.3974 9.12231 15.1443 9.12231 14.8912C9.13994 14.8862 9.15757 14.8812 9.1752 14.8762C9.20875 14.9348 9.25303 14.9896 9.27424 15.0525C9.57026 15.9309 9.94049 16.7726 10.4411 17.5514C10.4802 17.6122 10.5199 17.6879 10.5206 17.7571C10.5266 18.4066 10.5241 19.0563 10.5241 19.6971C10.1456 19.2467 9.71355 18.7832 9.34805 18.2702C9.22176 18.0929 9.24521 17.7936 9.22778 17.548C9.1842 16.935 9.15642 16.3208 9.12231 15.6787Z" fill="#FBFBFB"/>
<path d="M11.4797 11.5308C11.3636 11.6008 11.2488 11.6503 11.1139 11.6829C11.1261 11.5983 11.1583 11.5307 11.2121 11.4626C11.2669 11.4043 11.3 11.3465 11.353 11.288C11.5471 11.2546 11.6788 11.1813 11.6815 10.9416C11.5103 10.9416 11.3544 10.9416 11.1984 10.9416C11.2642 10.7905 11.2216 10.6717 11.092 10.5594C11.0894 10.5407 11.0877 10.5427 11.0877 10.5427C11.1541 10.5685 11.2213 10.5925 11.2867 10.6206C11.3944 10.667 11.5072 10.7622 11.6058 10.7482C11.673 10.7387 11.7236 10.5804 11.7738 10.4844C11.7935 10.4467 11.7921 10.3975 11.8053 10.3264C11.9449 10.7042 11.8525 11.1005 11.597 11.3339C11.5469 11.3797 11.519 11.4509 11.4797 11.5308Z" fill="#7A0F0F"/>
<path d="M11.174 10.9421C11.3551 10.9414 11.511 10.9414 11.6822 10.9414C11.6795 11.1811 11.5478 11.2544 11.341 11.2707C11.1258 11.257 10.9433 11.2597 10.7609 11.2624C10.6186 11.2021 10.4763 11.1417 10.3418 11.0847C10.4342 11.046 10.5454 10.9995 10.6773 10.9476C10.8482 10.9424 10.9986 10.9426 11.174 10.9421Z" fill="#9E0201"/>
<path d="M11.0901 10.5397C11.0298 10.5355 10.9686 10.5322 10.9073 10.529C10.9102 10.5056 10.913 10.4822 10.9158 10.4587C10.9714 10.4743 11.027 10.4898 11.0851 10.524C11.0875 10.5427 11.0892 10.5407 11.0901 10.5397Z" fill="#7A0F0F"/>
<path d="M7.82453 11.4102C7.47746 10.9507 7.57311 10.3976 7.48578 9.88324C7.51435 9.86291 7.54292 9.84259 7.57152 9.82227C7.66286 9.93291 7.78531 10.0299 7.83879 10.1572C7.93449 10.3849 7.98868 10.6308 8.05395 10.8483C8.22459 10.9406 8.38409 11.0269 8.5872 11.1166C8.73386 11.1734 8.83694 11.2268 8.91458 11.2858C8.77715 11.2904 8.66508 11.2864 8.55317 11.2892C8.37772 11.2935 8.18164 11.2423 8.06311 11.4597C8.02658 11.461 8.00571 11.462 7.98365 11.4626C7.98245 11.4622 7.97995 11.4623 7.97083 11.4468C7.916 11.4242 7.87025 11.4172 7.82453 11.4102Z" fill="#7A0F0F"/>
<path d="M7.98553 11.4631C8.00641 11.4621 8.02726 11.4611 8.08645 11.4619C8.37944 11.4448 8.63598 11.4386 8.88767 11.3996C8.96865 11.3871 9.03688 11.2885 9.1118 11.2321C9.11264 11.2349 9.10738 11.2372 9.10738 11.2372C9.42824 11.2176 9.74914 11.1831 10.0699 11.1844C10.2374 11.185 10.4047 11.2485 10.6057 11.3065C10.8234 11.3738 11.0073 11.4184 11.1912 11.4629C11.159 11.5305 11.1269 11.5981 11.0931 11.6854C11.0645 11.7384 11.0375 11.7719 10.9811 11.8012C10.7538 11.6017 10.5864 11.3474 10.2491 11.4223C10.2273 11.4271 10.1987 11.4068 10.1751 11.3946C9.96904 11.2883 9.83883 11.3526 9.77577 11.576C9.77346 11.5842 9.74599 11.585 9.73017 11.5891C9.69311 11.5344 9.65612 11.4797 9.60703 11.4072C9.58603 11.4811 9.5743 11.5224 9.56073 11.5702C9.39495 11.4659 9.23629 11.3717 9.13467 11.6393C9.12806 11.6567 9.04453 11.6436 8.99679 11.6447C8.97397 11.6424 8.95117 11.6402 8.89258 11.6399C8.82743 11.6765 8.79804 11.7113 8.76862 11.7461C8.74695 11.7672 8.72528 11.7883 8.68134 11.7909C8.56354 11.725 8.46917 11.6749 8.37222 11.6307C8.24439 11.5724 8.11452 11.5187 7.98553 11.4631Z" fill="#DF0301"/>
<path d="M8.99835 11.6671C9.04496 11.6438 9.12849 11.6569 9.13508 11.6395C9.23672 11.3718 9.39538 11.4661 9.56116 11.5703C9.57473 11.5226 9.58646 11.4812 9.60746 11.4074C9.65655 11.4799 9.69354 11.5345 9.7306 11.5892C9.74642 11.5851 9.77389 11.5844 9.7762 11.5762C9.83926 11.3527 9.96947 11.2884 10.1755 11.3948C10.1991 11.407 10.2277 11.4272 10.2495 11.4224C10.5868 11.3475 10.7542 11.6018 10.9662 11.8068C10.9599 11.8684 10.9394 11.9203 10.9061 12.005C10.7877 11.8731 10.6868 11.7606 10.6356 11.7036C10.3686 11.7036 10.136 11.6905 9.90547 11.707C9.64642 11.7257 9.38966 11.7768 9.13068 11.799C9.09022 11.8025 9.04335 11.7279 8.99835 11.6671Z" fill="#C60201"/>
<path d="M7.98419 11.463C8.11438 11.519 8.24423 11.5727 8.37206 11.6309C8.46903 11.6752 8.5634 11.7253 8.66552 11.7932C8.6446 12.0487 8.61711 12.2837 8.59118 12.5053C8.35637 12.2039 8.08475 11.8551 7.8371 11.4862C7.9009 11.4649 7.94071 11.4638 7.98049 11.4627C7.98049 11.4627 7.98301 11.4625 7.98419 11.463Z" fill="#B50201"/>
<path d="M11.212 11.4626C11.0064 11.4186 10.8225 11.3741 10.6274 11.3165C10.6527 11.2954 10.6891 11.2873 10.7428 11.2709C10.9425 11.2599 11.1249 11.2572 11.3201 11.2716C11.2998 11.3466 11.2667 11.4043 11.212 11.4626Z" fill="#0C0000"/>
<path d="M8.94103 11.2804C8.83795 11.227 8.73487 11.1737 8.60938 11.1181C8.83446 11.0797 9.08197 11.0435 9.3295 11.0073C9.33453 11.0286 9.33958 11.0499 9.3446 11.0712C9.26968 11.1127 9.19477 11.1543 9.11379 11.2167C9.1077 11.2375 9.11297 11.2352 9.09407 11.2349C9.03043 11.2498 8.98572 11.2651 8.94103 11.2804Z" fill="#0C0000"/>
<path d="M8.78412 11.741C8.7973 11.7116 8.82669 11.6768 8.8746 11.6406C8.86219 11.6714 8.83128 11.7035 8.78412 11.741Z" fill="#B50201"/>
<path d="M7.97183 11.447C7.94114 11.4636 7.90134 11.4647 7.84162 11.4651C7.82168 11.4643 7.81473 11.4366 7.82012 11.4235C7.87125 11.4174 7.91699 11.4244 7.97183 11.447Z" fill="#DF0301"/>
<path d="M8.9152 11.286C8.98533 11.265 9.03004 11.2497 9.09282 11.2319C9.0368 11.2887 8.96857 11.3873 8.88762 11.3998C8.6359 11.4387 8.37938 11.445 8.10205 11.4617C8.18226 11.2425 8.37832 11.2936 8.55379 11.2893C8.6657 11.2866 8.77778 11.2906 8.9152 11.286Z" fill="#FBFBFB"/>
<path d="M11.4783 11.5511C11.4985 11.5991 11.5464 11.6562 11.5346 11.6936C11.4312 12.0192 11.3476 12.357 11.1981 12.6603C11.0267 13.008 10.877 12.9919 10.7047 12.6537C10.6789 12.6031 10.6589 12.5494 10.6338 12.4984C10.5133 12.2542 10.3489 12.2041 10.1426 12.3826C10.0258 12.4836 9.93401 12.6262 9.86193 12.7666C9.79776 12.8916 9.7784 13.0402 9.7355 13.1771C9.60449 13.5953 9.30391 13.7117 8.96537 13.4376C8.73242 13.249 8.51962 13.0203 8.34294 12.7755C7.59398 11.7379 7.18671 10.5531 6.96445 9.29539C6.9234 9.063 6.90548 8.82635 6.87323 8.56169C7.16189 8.58253 7.41346 8.63572 7.65735 8.61072C8.11056 8.56432 8.43796 8.26624 8.7562 7.95911C8.96854 7.75416 9.152 7.49026 9.51053 7.47461C9.53398 8.00288 9.30576 8.42542 9.07112 8.84926C8.99012 8.99561 8.9076 9.15661 8.88677 9.31908C8.84057 9.67903 9.06838 9.87716 9.41569 9.80904C9.50641 9.79124 9.59405 9.73995 9.68369 9.73831C9.77982 9.73651 9.92179 9.74098 9.96578 9.80171C10.2239 10.1581 10.4593 10.5317 10.6791 10.9263C10.5446 10.9995 10.4333 11.0461 10.3409 11.0847C10.4754 11.1418 10.6177 11.2022 10.7428 11.2708C10.6891 11.2872 10.6526 11.2953 10.5936 11.2936C10.4037 11.2486 10.2365 11.1851 10.069 11.1845C9.74819 11.1832 9.42729 11.2177 9.11251 11.2165C9.19352 11.1541 9.26843 11.1126 9.34333 11.071C9.3383 11.0497 9.33327 11.0285 9.32822 11.0072C9.08072 11.0434 8.83319 11.0796 8.56452 11.1146C8.38385 11.0271 8.22432 10.9407 8.05368 10.8484C7.98841 10.631 7.93425 10.385 7.83853 10.1574C7.78504 10.0301 7.66262 9.93305 7.57125 9.82241C7.54268 9.84273 7.51411 9.86305 7.48551 9.88338C7.57286 10.3978 7.47721 10.9508 7.81888 11.4235C7.81349 11.4366 7.82044 11.4643 7.81638 11.4852C8.08394 11.8549 8.35557 12.2037 8.59037 12.5051C8.6163 12.2835 8.64381 12.0485 8.68698 11.8114C8.72433 11.7884 8.746 11.7673 8.78391 11.7409C8.83107 11.7034 8.86198 11.6713 8.91015 11.6386C8.95022 11.6403 8.97302 11.6425 8.99697 11.6671C9.042 11.7278 9.08887 11.8024 9.1293 11.799C9.38828 11.7767 9.64504 11.7256 9.90411 11.707C10.1346 11.6904 10.3672 11.7035 10.6342 11.7035C10.6854 11.7606 10.7863 11.873 10.9047 12.0049C10.938 11.9203 10.9585 11.8683 10.9943 11.8109C11.0366 11.772 11.0635 11.7385 11.1121 11.7025C11.2486 11.6502 11.3634 11.6007 11.4783 11.5511Z" fill="#FBFBFB"/>
<path d="M9.2247 1.47119C9.32627 2.0697 9.43262 2.64095 9.52743 3.21419C9.57851 3.52302 9.60975 3.83528 9.64973 4.14423C8.64424 4.18869 7.67882 4.23138 6.72101 4.27372C6.89833 2.22775 8.28615 0.527969 9.71466 0.0898438C9.36821 0.502102 9.19988 0.940531 9.2247 1.47119Z" fill="#FBFBFB"/>
<path d="M6.49493 5.5449C5.78305 5.76672 5.10711 6.01042 4.56974 6.53375C4.11865 6.97307 4.00075 7.5398 4.23491 8.12887C4.49317 8.77854 4.95289 9.23937 5.54141 9.57922C5.63598 9.63382 5.79808 9.77214 5.89051 9.83061C5.87173 9.85612 5.90929 9.8051 5.89051 9.83061C5.61296 9.61284 5.32902 9.67597 5.04871 9.46196C4.96935 9.40136 4.82509 9.28521 4.68795 9.09332C4.14369 8.77714 3.63997 7.67023 3.72624 7.02707C3.8141 6.37218 4.24071 5.98137 4.75186 5.67282C5.4595 5.24566 6.24304 5.05005 7.05001 4.9196C8.17017 4.73855 9.29651 4.74371 10.4239 4.75327C10.6774 4.75543 10.9323 4.77588 11.1833 4.81171C11.3123 4.83015 11.5196 4.83776 11.6468 4.87802C9.92046 4.97817 8.19379 5.05698 6.49493 5.5449Z" fill="#FBFBFB"/>
<path d="M9.12231 15.6787C9.12231 15.3974 9.12231 15.1443 9.12231 14.8912C9.13994 14.8862 9.15757 14.8812 9.1752 14.8762C9.20875 14.9348 9.25303 14.9896 9.27424 15.0525C9.57026 15.9309 9.94049 16.7726 10.4411 17.5514C10.4802 17.6122 10.5199 17.6879 10.5206 17.7571C10.5266 18.4066 10.5241 19.0563 10.5241 19.6971C10.1456 19.2467 9.71355 18.7832 9.34805 18.2702C9.22176 18.0929 9.24521 17.7936 9.22778 17.548C9.1842 16.935 9.15642 16.3208 9.12231 15.6787Z" fill="#FBFBFB"/>
<path d="M11.4797 11.5308C11.3636 11.6008 11.2488 11.6503 11.1139 11.6829C11.1261 11.5983 11.1583 11.5307 11.2121 11.4626C11.2669 11.4043 11.3 11.3465 11.353 11.288C11.5471 11.2546 11.6788 11.1813 11.6815 10.9416C11.5103 10.9416 11.3544 10.9416 11.1984 10.9416C11.2642 10.7905 11.2216 10.6717 11.092 10.5594C11.0894 10.5407 11.0877 10.5427 11.0877 10.5427C11.1541 10.5685 11.2213 10.5925 11.2867 10.6206C11.3944 10.667 11.5072 10.7622 11.6058 10.7482C11.673 10.7387 11.7236 10.5804 11.7738 10.4844C11.7935 10.4467 11.7921 10.3975 11.8053 10.3264C11.9449 10.7042 11.8525 11.1005 11.597 11.3339C11.5469 11.3797 11.519 11.4509 11.4797 11.5308Z" fill="#7A0F0F"/>
<path d="M11.174 10.9421C11.3551 10.9414 11.511 10.9414 11.6822 10.9414C11.6795 11.1811 11.5478 11.2544 11.341 11.2707C11.1258 11.257 10.9433 11.2597 10.7609 11.2624C10.6186 11.2021 10.4763 11.1417 10.3418 11.0847C10.4342 11.046 10.5454 10.9995 10.6773 10.9476C10.8482 10.9424 10.9986 10.9426 11.174 10.9421Z" fill="#9E0201"/>
<path d="M11.0901 10.5397C11.0298 10.5355 10.9686 10.5322 10.9073 10.529C10.9102 10.5056 10.913 10.4822 10.9158 10.4587C10.9714 10.4743 11.027 10.4898 11.0851 10.524C11.0875 10.5427 11.0892 10.5407 11.0901 10.5397Z" fill="#7A0F0F"/>
<path d="M7.82453 11.4102C7.47746 10.9507 7.57311 10.3976 7.48578 9.88324C7.51435 9.86291 7.54292 9.84259 7.57152 9.82227C7.66286 9.93291 7.78531 10.0299 7.83879 10.1572C7.93449 10.3849 7.98868 10.6308 8.05395 10.8483C8.22459 10.9406 8.38409 11.0269 8.5872 11.1166C8.73386 11.1734 8.83694 11.2268 8.91458 11.2858C8.77715 11.2904 8.66508 11.2864 8.55317 11.2892C8.37772 11.2935 8.18164 11.2423 8.06311 11.4597C8.02658 11.461 8.00571 11.462 7.98365 11.4626C7.98245 11.4622 7.97995 11.4623 7.97083 11.4468C7.916 11.4242 7.87025 11.4172 7.82453 11.4102Z" fill="#7A0F0F"/>
<path d="M7.98553 11.4631C8.00641 11.4621 8.02726 11.4611 8.08645 11.4619C8.37944 11.4448 8.63598 11.4386 8.88767 11.3996C8.96865 11.3871 9.03688 11.2885 9.1118 11.2321C9.11264 11.2349 9.10738 11.2372 9.10738 11.2372C9.42824 11.2176 9.74914 11.1831 10.0699 11.1844C10.2374 11.185 10.4047 11.2485 10.6057 11.3065C10.8234 11.3738 11.0073 11.4184 11.1912 11.4629C11.159 11.5305 11.1269 11.5981 11.0931 11.6854C11.0645 11.7384 11.0375 11.7719 10.9811 11.8012C10.7538 11.6017 10.5864 11.3474 10.2491 11.4223C10.2273 11.4271 10.1987 11.4068 10.1751 11.3946C9.96904 11.2883 9.83883 11.3526 9.77577 11.576C9.77346 11.5842 9.74599 11.585 9.73017 11.5891C9.69311 11.5344 9.65612 11.4797 9.60703 11.4072C9.58603 11.4811 9.5743 11.5224 9.56073 11.5702C9.39495 11.4659 9.23629 11.3717 9.13467 11.6393C9.12806 11.6567 9.04453 11.6436 8.99679 11.6447C8.97397 11.6424 8.95117 11.6402 8.89258 11.6399C8.82743 11.6765 8.79804 11.7113 8.76862 11.7461C8.74695 11.7672 8.72528 11.7883 8.68134 11.7909C8.56354 11.725 8.46917 11.6749 8.37222 11.6307C8.24439 11.5724 8.11452 11.5187 7.98553 11.4631Z" fill="#DF0301"/>
<path d="M8.99835 11.6671C9.04496 11.6438 9.12849 11.6569 9.13508 11.6395C9.23672 11.3718 9.39538 11.4661 9.56116 11.5703C9.57473 11.5226 9.58646 11.4812 9.60746 11.4074C9.65655 11.4799 9.69354 11.5345 9.7306 11.5892C9.74642 11.5851 9.77389 11.5844 9.7762 11.5762C9.83926 11.3527 9.96947 11.2884 10.1755 11.3948C10.1991 11.407 10.2277 11.4272 10.2495 11.4224C10.5868 11.3475 10.7542 11.6018 10.9662 11.8068C10.9599 11.8684 10.9394 11.9203 10.9061 12.005C10.7877 11.8731 10.6868 11.7606 10.6356 11.7036C10.3686 11.7036 10.136 11.6905 9.90547 11.707C9.64642 11.7257 9.38966 11.7768 9.13068 11.799C9.09022 11.8025 9.04335 11.7279 8.99835 11.6671Z" fill="#C60201"/>
<path d="M7.98419 11.463C8.11438 11.519 8.24423 11.5727 8.37206 11.6309C8.46903 11.6752 8.5634 11.7253 8.66552 11.7932C8.6446 12.0487 8.61711 12.2837 8.59118 12.5053C8.35637 12.2039 8.08475 11.8551 7.8371 11.4862C7.9009 11.4649 7.94071 11.4638 7.98049 11.4627C7.98049 11.4627 7.98301 11.4625 7.98419 11.463Z" fill="#B50201"/>
<path d="M11.212 11.4626C11.0064 11.4186 10.8225 11.3741 10.6274 11.3165C10.6527 11.2954 10.6891 11.2873 10.7428 11.2709C10.9425 11.2599 11.1249 11.2572 11.3201 11.2716C11.2998 11.3466 11.2667 11.4043 11.212 11.4626Z" fill="#0C0000"/>
<path d="M8.94103 11.2804C8.83795 11.227 8.73487 11.1737 8.60938 11.1181C8.83446 11.0797 9.08197 11.0435 9.3295 11.0073C9.33453 11.0286 9.33958 11.0499 9.3446 11.0712C9.26968 11.1127 9.19477 11.1543 9.11379 11.2167C9.1077 11.2375 9.11297 11.2352 9.09407 11.2349C9.03043 11.2498 8.98572 11.2651 8.94103 11.2804Z" fill="#0C0000"/>
<path d="M8.78412 11.741C8.7973 11.7116 8.82669 11.6768 8.8746 11.6406C8.86219 11.6714 8.83128 11.7035 8.78412 11.741Z" fill="#B50201"/>
<path d="M7.97183 11.447C7.94114 11.4636 7.90134 11.4647 7.84162 11.4651C7.82168 11.4643 7.81473 11.4366 7.82012 11.4235C7.87125 11.4174 7.91699 11.4244 7.97183 11.447Z" fill="#DF0301"/>
<path d="M8.9152 11.286C8.98533 11.265 9.03004 11.2497 9.09282 11.2319C9.0368 11.2887 8.96857 11.3873 8.88762 11.3998C8.6359 11.4387 8.37938 11.445 8.10205 11.4617C8.18226 11.2425 8.37832 11.2936 8.55379 11.2893C8.6657 11.2866 8.77778 11.2906 8.9152 11.286Z" fill="#FBFBFB"/>
</svg>